<svg xmlns="http://www.w3.org/2000/svg" viewBox="0 0 63 63" shape-rendering="crispEdges"><path fill="#ffffff" d="M0 0h63v63H0z"/><path stroke="#000000" d="M1 1.5h7m2 0h3m2 0h1m1 0h1m2 0h2m2 0h1m4 0h1m1 0h2m1 0h1m2 0h2m1 0h5m1 0h1m3 0h1m1 0h2m1 0h7M1 2.5h1m5 0h1m6 0h1m1 0h2m1 0h1m1 0h4m3 0h2m4 0h3m2 0h2m6 0h1m1 0h1m2 0h2m1 0h1m5 0h1M1 3.5h1m1 0h3m1 0h1m1 0h1m5 0h2m1 0h2m3 0h1m3 0h1m1 0h4m2 0h1m2 0h5m2 0h1m1 0h2m2 0h3m1 0h1m1 0h3m1 0h1M1 4.5h1m1 0h3m1 0h1m1 0h10m2 0h1m1 0h2m4 0h1m4 0h4m1 0h1m4 0h1m1 0h2m1 0h1m1 0h1m1 0h1m1 0h1m1 0h3m1 0h1M1 5.5h1m1 0h3m1 0h1m1 0h5m1 0h1m1 0h5m2 0h10m1 0h1m1 0h3m1 0h2m4 0h2m1 0h3m2 0h1m1 0h3m1 0h1M1 6.5h1m5 0h1m1 0h3m2 0h4m1 0h2m2 0h1m4 0h2m3 0h2m1 0h1m4 0h1m1 0h2m1 0h1m2 0h1m1 0h1m3 0h1m5 0h1M1 7.5h7m1 0h1m1 0h1m1 0h1m1 0h1m1 0h1m1 0h1m1 0h1m1 0h1m1 0h1m1 0h1m1 0h1m1 0h1m1 0h1m1 0h1m1 0h1m1 0h1m1 0h1m1 0h1m1 0h1m1 0h1m1 0h1m1 0h1m1 0h1m1 0h7M9 8.5h1m4 0h2m5 0h3m1 0h1m2 0h2m3 0h1m1 0h1m2 0h2m1 0h2m1 0h2m2 0h1m3 0h1M1 9.5h1m1 0h5m2 0h1m1 0h1m1 0h4m1 0h3m1 0h1m1 0h1m3 0h5m1 0h3m1 0h1m2 0h2m2 0h1m2 0h1m2 0h2m1 0h5M1 10.5h1m1 0h1m1 0h2m1 0h1m1 0h2m6 0h3m1 0h1m1 0h1m2 0h2m1 0h2m1 0h1m4 0h1m2 0h1m1 0h1m1 0h1m2 0h3m4 0h1m1 0h1m2 0h1M2 11.5h2m1 0h1m1 0h1m1 0h2m1 0h2m1 0h1m2 0h1m1 0h2m1 0h1m2 0h7m2 0h1m1 0h3m1 0h1m4 0h7m4 0h1m2 0h2M2 12.5h1m3 0h1m3 0h1m2 0h1m2 0h4m10 0h3m2 0h1m4 0h2m1 0h1m1 0h2m1 0h1m6 0h4M1 13.5h2m1 0h1m2 0h1m3 0h1m2 0h6m3 0h1m2 0h1m1 0h3m3 0h1m2 0h1m1 0h1m4 0h1m1 0h4m3 0h1m5 0h1m1 0h1M2 14.5h5m1 0h2m3 0h1m1 0h1m2 0h1m3 0h1m4 0h2m2 0h3m4 0h1m4 0h2m1 0h1m5 0h1m2 0h3m1 0h1M2 15.5h1m1 0h1m2 0h2m3 0h2m1 0h1m4 0h2m5 0h1m1 0h2m1 0h1m1 0h4m1 0h2m1 0h1m1 0h1m2 0h1m1 0h1m1 0h4m3 0h1m1 0h2M4 16.5h1m1 0h1m1 0h1m1 0h2m1 0h1m2 0h1m1 0h2m2 0h1m4 0h1m3 0h2m1 0h1m1 0h4m4 0h1m1 0h4m2 0h1m2 0h1m1 0h1m2 0h2M1 17.5h1m3 0h5m2 0h4m3 0h2m1 0h4m2 0h1m3 0h1m4 0h2m1 0h1m2 0h1m2 0h2m1 0h1m1 0h1m1 0h1m2 0h1m1 0h2M1 18.5h1m1 0h4m1 0h1m2 0h2m2 0h7m1 0h1m1 0h1m1 0h2m1 0h1m2 0h1m2 0h2m4 0h3m1 0h1m1 0h3m4 0h1m1 0h3M3 19.5h2m2 0h1m1 0h1m2 0h10m1 0h3m3 0h4m2 0h1m1 0h1m1 0h2m1 0h1m3 0h2m1 0h1m1 0h2m1 0h1m3 0h1m1 0h2M4 20.5h2m3 0h1m1 0h1m2 0h1m3 0h1m1 0h4m1 0h2m3 0h2m1 0h1m4 0h1m2 0h1m1 0h1m1 0h4m2 0h2m1 0h4m2 0h1M2 21.5h1m4 0h1m5 0h2m1 0h2m1 0h2m1 0h1m2 0h1m3 0h1m7 0h2m5 0h1m1 0h2m1 0h1m3 0h3m3 0h3M2 22.5h2m1 0h2m2 0h2m1 0h4m2 0h2m2 0h1m2 0h2m2 0h2m1 0h3m3 0h1m3 0h2m2 0h1m3 0h1m3 0h3m2 0h1M1 23.5h3m1 0h5m1 0h2m1 0h1m2 0h1m1 0h3m1 0h1m2 0h2m4 0h1m2 0h1m1 0h3m4 0h1m1 0h2m1 0h1m1 0h1m2 0h1m1 0h1m1 0h4M2 24.5h2m2 0h1m3 0h2m3 0h5m3 0h1m2 0h1m1 0h1m1 0h1m1 0h1m1 0h1m5 0h2m1 0h4m1 0h1m1 0h1m1 0h1m3 0h2M1 25.5h1m4 0h2m2 0h1m1 0h1m3 0h2m1 0h4m1 0h3m4 0h1m1 0h1m2 0h3m3 0h3m3 0h3m2 0h1m4 0h2m1 0h1M3 26.5h3m2 0h5m3 0h1m5 0h2m1 0h1m1 0h2m1 0h2m2 0h1m6 0h1m1 0h2m1 0h1m2 0h1m2 0h1m2 0h2M2 27.5h2m2 0h3m1 0h1m1 0h1m1 0h1m3 0h1m5 0h3m2 0h5m3 0h2m1 0h1m1 0h2m1 0h1m3 0h5m2 0h1m4 0h1M1 28.5h3m1 0h2m2 0h4m1 0h1m10 0h2m1 0h1m1 0h2m1 0h2m5 0h3m1 0h3m5 0h1m1 0h1m1 0h2m2 0h1M4 29.5h6m3 0h3m3 0h4m5 0h10m1 0h1m9 0h1m3 0h5m1 0h1m1 0h1M1 30.5h3m1 0h1m3 0h1m2 0h1m1 0h2m2 0h4m2 0h4m1 0h1m3 0h1m2 0h2m2 0h5m5 0h1m2 0h1m3 0h2m1 0h1M2 31.5h1m2 0h1m1 0h1m1 0h1m1 0h6m1 0h1m1 0h1m2 0h1m1 0h1m2 0h2m1 0h1m1 0h3m1 0h1m1 0h2m3 0h1m1 0h2m1 0h3m1 0h1m1 0h1m1 0h3m1 0h1M1 32.5h1m2 0h2m3 0h1m2 0h1m1 0h1m2 0h2m2 0h1m1 0h4m1 0h2m3 0h2m1 0h1m1 0h1m1 0h2m2 0h3m3 0h4m3 0h2M2 33.5h1m1 0h6m1 0h1m6 0h1m1 0h1m5 0h1m1 0h6m2 0h4m4 0h1m1 0h6m1 0h5m1 0h1m1 0h1M1 34.5h3m2 0h1m1 0h2m2 0h2m1 0h1m5 0h2m1 0h4m1 0h1m2 0h2m2 0h2m2 0h2m1 0h2m3 0h1m3 0h3m3 0h1M2 35.5h1m1 0h1m1 0h2m1 0h3m1 0h1m1 0h5m1 0h2m3 0h1m1 0h2m1 0h1m1 0h1m1 0h3m1 0h2m4 0h4m2 0h3m1 0h2m3 0h2M1 36.5h4m1 0h1m1 0h2m1 0h1m4 0h1m1 0h3m2 0h1m1 0h2m1 0h1m1 0h1m1 0h1m4 0h4m1 0h2m3 0h1m1 0h1m1 0h1m4 0h2m2 0h2M1 37.5h5m1 0h1m1 0h4m2 0h2m1 0h3m7 0h2m1 0h1m1 0h2m1 0h1m1 0h2m1 0h5m1 0h2m3 0h2m1 0h3m1 0h1m1 0h1M1 38.5h2m1 0h3m1 0h4m1 0h1m1 0h2m6 0h1m1 0h3m1 0h1m2 0h2m4 0h1m1 0h4m1 0h2m3 0h1m1 0h2m2 0h1m3 0h2M2 39.5h1m3 0h2m2 0h1m1 0h1m2 0h1m4 0h1m1 0h2m1 0h6m2 0h1m1 0h2m1 0h2m1 0h1m2 0h5m1 0h4m1 0h1m2 0h1m1 0h1M2 40.5h1m1 0h2m2 0h2m2 0h1m1 0h3m1 0h1m1 0h1m2 0h2m2 0h2m1 0h1m1 0h1m1 0h1m1 0h1m4 0h2m1 0h2m2 0h1m1 0h2m1 0h2m6 0h1M1 41.5h4m2 0h1m3 0h2m2 0h1m2 0h4m3 0h7m1 0h3m1 0h3m3 0h2m4 0h5m1 0h3m1 0h1m1 0h1M2 42.5h1m2 0h1m3 0h4m1 0h1m4 0h4m1 0h1m5 0h1m3 0h1m5 0h1m1 0h2m1 0h2m1 0h3m1 0h1m3 0h1m1 0h2M6 43.5h3m1 0h3m3 0h4m2 0h2m2 0h3m1 0h4m1 0h1m1 0h1m1 0h1m7 0h6m1 0h3m3 0h2M6 44.5h1m3 0h1m5 0h1m1 0h1m1 0h2m2 0h1m1 0h7m2 0h1m2 0h5m2 0h1m1 0h2m1 0h1m2 0h1m2 0h1m3 0h2M3 45.5h2m2 0h1m1 0h3m2 0h1m1 0h1m3 0h7m1 0h1m2 0h2m1 0h4m1 0h1m4 0h1m1 0h8m1 0h1m1 0h1m1 0h1m1 0h1M1 46.5h2m10 0h2m1 0h5m1 0h1m1 0h2m1 0h3m2 0h1m2 0h8m1 0h2m1 0h1m1 0h2m2 0h2m3 0h1m1 0h1M2 47.5h1m1 0h1m2 0h2m1 0h2m2 0h1m3 0h1m4 0h1m7 0h1m1 0h2m2 0h1m3 0h1m1 0h2m1 0h1m1 0h2m3 0h1m1 0h1m2 0h4M2 48.5h1m5 0h3m1 0h1m1 0h2m1 0h3m1 0h1m1 0h1m1 0h1m1 0h1m1 0h4m5 0h2m1 0h1m3 0h3m1 0h1m6 0h2m2 0h2M2 49.5h1m1 0h1m2 0h1m1 0h5m5 0h2m2 0h2m4 0h1m1 0h1m4 0h2m1 0h2m1 0h2m4 0h7m2 0h5M1 50.5h1m1 0h1m1 0h1m3 0h1m8 0h2m1 0h2m1 0h4m2 0h3m4 0h2m1 0h4m4 0h1m3 0h3m3 0h1m1 0h1M3 51.5h6m3 0h1m1 0h1m1 0h1m3 0h1m2 0h4m1 0h2m1 0h2m1 0h4m1 0h2m3 0h1m1 0h4m1 0h3m1 0h1m2 0h2m1 0h1M1 52.5h3m1 0h1m4 0h1m1 0h2m3 0h1m2 0h1m1 0h1m1 0h2m2 0h3m7 0h2m1 0h3m1 0h3m2 0h1m2 0h1m2 0h3m1 0h2M1 53.5h4m2 0h2m1 0h1m1 0h2m2 0h3m7 0h1m1 0h7m1 0h2m1 0h1m2 0h3m3 0h3m1 0h10M9 54.5h2m2 0h1m7 0h1m1 0h1m1 0h5m3 0h1m3 0h2m4 0h1m1 0h1m7 0h1m3 0h1M1 55.5h7m6 0h1m2 0h1m3 0h3m5 0h1m1 0h1m1 0h1m1 0h5m1 0h2m1 0h5m1 0h4m1 0h1m1 0h2m1 0h2M1 56.5h1m5 0h1m1 0h2m3 0h1m6 0h1m1 0h1m1 0h1m1 0h1m1 0h1m3 0h1m2 0h3m4 0h2m2 0h1m1 0h2m1 0h2m3 0h1m3 0h1M1 57.5h1m1 0h3m1 0h1m1 0h3m4 0h1m1 0h3m3 0h1m3 0h6m3 0h1m2 0h1m6 0h1m1 0h1m2 0h6m1 0h3M1 58.5h1m1 0h3m1 0h1m1 0h1m1 0h1m1 0h1m2 0h2m3 0h1m1 0h6m1 0h3m3 0h3m4 0h2m4 0h2m1 0h3m2 0h1m3 0h1M1 59.5h1m1 0h3m1 0h1m1 0h2m1 0h4m2 0h2m10 0h1m4 0h1m1 0h1m1 0h2m5 0h7m1 0h1m1 0h1m1 0h1m2 0h1M1 60.5h1m5 0h1m2 0h5m2 0h5m1 0h1m1 0h2m1 0h3m2 0h2m1 0h1m1 0h1m2 0h1m1 0h4m5 0h5m4 0h1M1 61.5h7m1 0h3m1 0h1m1 0h2m2 0h7m6 0h1m1 0h2m1 0h2m3 0h2m2 0h2m1 0h1m1 0h3m2 0h1m2 0h3"/></svg>
